# xmcd CD database file
#
# Track frame offsets:
#	150
#	14837
#	30787
#	45337
#	58475
#	72737
#	96187
#	111425
#	127225
#	143037
#
# Disc length: 2094 seconds
#
# Revision: 0
# Processed by: cddbd v1.5.1PL0 Copyright (c) Steve Scherf et al.
# Submitted via: CDex 1.51
#
DISCID=97082c0a
DTITLE=Derek Hardie - Landslide
DYEAR=1900
DGENRE=Country
TTITLE0=Landslide
TTITLE1=Southern Wind
TTITLE2=Cool Clear Water
TTITLE3=All Dressed Up
TTITLE4=Save Me
TTITLE5=Adios Mexiko
TTITLE6=Jonny Boy
TTITLE7=Ain't No Use In Crying Now
TTITLE8=Suzy Q
TTITLE9=Lonely Girl
EXTD=
EXTT0=
EXTT1=
EXTT2=
EXTT3=
EXTT4=
EXTT5=
EXTT6=
EXTT7=
EXTT8=
EXTT9=
PLAYORDER=
